<?xml version="1.0" encoding="UTF-8" standalone="no"?>
<!-- Created with Inkscape (http://www.inkscape.org/) -->

<svg
   width="32"
   height="32"
   viewBox="0 0 8.4666666 8.4666666"
   version="1.1"
   id="svg5"
   inkscape:version="1.1.1 (3bf5ae0d25, 2021-09-20)"
   sodipodi:docname="yajirushi-mode-setting-open.svg"
   xmlns:inkscape="http://www.inkscape.org/namespaces/inkscape"
   xmlns:sodipodi="http://sodipodi.sourceforge.net/DTD/sodipodi-0.dtd"
   xmlns="http://www.w3.org/2000/svg"
   xmlns:svg="http://www.w3.org/2000/svg">
  <sodipodi:namedview
     id="namedview7"
     pagecolor="#ffffff"
     bordercolor="#666666"
     borderopacity="1.0"
     inkscape:pageshadow="2"
     inkscape:pageopacity="0.0"
     inkscape:pagecheckerboard="true"
     inkscape:document-units="mm"
     showgrid="false"
     units="px"
     inkscape:zoom="11.313709"
     inkscape:cx="13.700193"
     inkscape:cy="11.799844"
     inkscape:window-width="1920"
     inkscape:window-height="1017"
     inkscape:window-x="-8"
     inkscape:window-y="-8"
     inkscape:window-maximized="1"
     inkscape:current-layer="layer1" />
  <defs
     id="defs2" />
  <g
     inkscape:label="Layer 1"
     inkscape:groupmode="layer"
     id="layer1">
    <g
       id="g1903">
      <g
         id="g1663"
         transform="matrix(0.83474164,0,0,0.83474164,-7.4168976,0.93785402)"
         style="stroke-width:0.475447;stroke-miterlimit:4;stroke-dasharray:none">
        <path
           id="rect1384"
           style="fill:none;stroke:#000000;stroke-width:0.475447;stroke-linecap:round;stroke-linejoin:round;stroke-miterlimit:4;stroke-dasharray:none"
           d="m 13.258688,1.8918047 0.880531,-0.5972412 c 0.108366,-0.073501 0.241669,-0.09259 0.334258,3e-7 l 0.455901,0.4559013 c 0.09259,0.09259 0.07339,0.2257702 -1.38e-4,0.3341198 l -0.597408,0.8803636"
           sodipodi:nodetypes="cssssc" />
        <path
           id="rect1384-1"
           style="fill:none;stroke:#000000;stroke-width:0.475447;stroke-linecap:round;stroke-linejoin:round;stroke-miterlimit:4;stroke-dasharray:none"
           d="M 11.741034,1.8918047 11.94135,0.84686226 c 0.02465,-0.1285996 0.105415,-0.2363561 0.236356,-0.2363561 h 0.644741 c 0.130942,0 0.211536,0.1077512 0.236161,0.2363561 l 0.20008,1.04494244"
           sodipodi:nodetypes="cssssc" />
        <path
           id="rect1384-1-4"
           style="fill:none;stroke:#000000;stroke-width:0.475447;stroke-linecap:round;stroke-linejoin:round;stroke-miterlimit:4;stroke-dasharray:none"
           d="m 14.331832,2.9649485 1.044943,0.2003159 c 0.128599,0.024653 0.236356,0.1054148 0.236356,0.236356 v 0.6447417 c 0,0.1309413 -0.107751,0.211536 -0.236356,0.2361606 L 14.331832,4.482603"
           sodipodi:nodetypes="cssssc" />
        <path
           id="rect1384-9"
           style="fill:none;stroke:#000000;stroke-width:0.475447;stroke-linecap:round;stroke-linejoin:round;stroke-miterlimit:4;stroke-dasharray:none"
           d="m 13.258688,5.5557468 0.880531,0.5972412 c 0.108366,0.073501 0.241669,0.09259 0.334258,-3e-7 l 0.455901,-0.4559013 c 0.09259,-0.09259 0.07339,-0.2257702 -1.38e-4,-0.3341198 L 14.331832,4.482603"
           sodipodi:nodetypes="cssssc" />
        <path
           id="rect1384-0"
           style="fill:none;stroke:#000000;stroke-width:0.475447;stroke-linecap:round;stroke-linejoin:round;stroke-miterlimit:4;stroke-dasharray:none"
           d="M 11.741034,1.8918047 10.860503,1.2945635 c -0.108366,-0.073501 -0.241669,-0.09259 -0.334258,3e-7 l -0.455901,0.4559013 c -0.09259,0.09259 -0.07339,0.2257702 1.38e-4,0.3341198 l 0.597408,0.8803636"
           sodipodi:nodetypes="cssssc" />
        <path
           id="rect1384-1-4-7"
           style="fill:none;stroke:#000000;stroke-width:0.475447;stroke-linecap:round;stroke-linejoin:round;stroke-miterlimit:4;stroke-dasharray:none"
           d="M 10.66789,2.9649485 9.622947,3.1652644 C 9.494348,3.1899174 9.386591,3.2706792 9.386591,3.4016204 v 0.6447417 c 0,0.1309413 0.107751,0.211536 0.236356,0.2361606 L 10.66789,4.482603"
           sodipodi:nodetypes="cssssc" />
        <path
           id="rect1384-9-3"
           style="fill:none;stroke:#000000;stroke-width:0.475447;stroke-linecap:round;stroke-linejoin:round;stroke-miterlimit:4;stroke-dasharray:none"
           d="M 11.741034,5.5557468 10.860503,6.152988 c -0.108366,0.073501 -0.241669,0.09259 -0.334258,-3e-7 L 10.070344,5.6970864 c -0.09259,-0.09259 -0.07339,-0.2257702 1.38e-4,-0.3341198 L 10.66789,4.482603"
           sodipodi:nodetypes="cssssc" />
        <path
           id="rect1384-1-9"
           style="fill:none;stroke:#000000;stroke-width:0.475447;stroke-linecap:round;stroke-linejoin:round;stroke-miterlimit:4;stroke-dasharray:none"
           d="m 11.741034,5.5557468 0.200316,1.0449424 c 0.02465,0.1285996 0.105415,0.2363561 0.236356,0.2363561 h 0.644741 c 0.130942,0 0.211536,-0.1077512 0.236161,-0.2363561 l 0.20008,-1.0449424"
           sodipodi:nodetypes="cssssc" />
      </g>
      <circle
         style="fill:none;stroke:#000000;stroke-width:0.396875;stroke-linecap:round;stroke-linejoin:round;stroke-miterlimit:4;stroke-dasharray:none;stroke-opacity:1"
         id="path2238-4"
         cx="3.0172567"
         cy="4.0462446"
         r="0.71779078" />
    </g>
    <g
       id="g1873"
       transform="matrix(0.66075176,0,0,0.66075176,-0.46706739,1.9438515)"
       style="stroke-width:0.60064161;stroke-miterlimit:4;stroke-dasharray:none">
      <path
         style="fill:none;stroke:#000000;stroke-width:0.60064161;stroke-linecap:round;stroke-linejoin:miter;stroke-miterlimit:4;stroke-dasharray:none;stroke-opacity:1"
         d="m 10.548986,2.5977189 1.025261,1.0252602"
         id="path1734" />
      <path
         style="fill:none;stroke:#000000;stroke-width:0.60064161;stroke-linecap:round;stroke-linejoin:miter;stroke-miterlimit:4;stroke-dasharray:none;stroke-opacity:1"
         d="M 12.599508,2.5977189 11.574247,3.6229791"
         id="path1734-8" />
    </g>
  </g>
</svg>
